<?xml version="1.0" encoding="utf-8"?>
<svg width="20px" height="20px" viewBox="0 0 20 20" xmlns="http://www.w3.org/2000/svg" xmlns:bx="https://boxy-svg.com">
  <path d="M 8.843 0.025 C 6.596 0.365 4.836 1.175 3.284 2.573 C 1.077 4.556 -0.067 7.234 0.003 10.237 C 0.018 10.854 0.049 11.457 0.08 11.588 C 0.243 12.359 0.297 12.576 0.474 13.132 C 0.945 14.606 1.733 15.879 2.929 17.068 C 4.45 18.581 5.978 19.407 8.109 19.862 C 8.982 20.048 11.035 20.048 11.93 19.854 C 14.633 19.275 16.878 17.77 18.353 15.548 C 19.063 14.474 19.688 12.962 19.851 11.897 C 19.874 11.727 19.928 11.433 19.959 11.24 C 20.028 10.87 20.005 8.894 19.928 8.5 C 19.897 8.369 19.843 8.091 19.804 7.883 C 19.581 6.787 19.002 5.436 18.299 4.363 C 17.828 3.653 16.393 2.209 15.674 1.731 C 14.539 0.974 13.219 0.427 11.892 0.157 C 11.32 0.041 9.321 -0.044 8.843 0.025 Z M 8.093 4.487 C 8.24 4.548 8.457 4.71 8.573 4.849 C 8.773 5.081 9.283 6.061 9.645 6.918 C 10.124 8.022 10.541 8.948 10.579 8.987 C 10.641 9.056 12.154 7.451 12.926 6.493 C 12.996 6.408 13.181 6.169 13.343 5.968 C 13.505 5.768 13.675 5.606 13.729 5.606 C 13.899 5.606 14.517 6.347 14.648 6.718 C 14.763 7.033 14.779 7.288 14.74 8.523 C 14.725 9.318 14.686 10.106 14.671 10.276 C 14.655 10.445 14.624 11.102 14.593 11.742 C 14.532 13.232 14.501 13.518 14.362 13.788 C 14.231 14.034 13.899 14.181 13.652 14.088 C 13.158 13.911 13.018 13.147 13.034 10.785 C 13.042 9.473 13.018 8.963 12.957 8.963 C 12.903 8.963 12.594 9.226 12.263 9.543 C 11.343 10.438 10.672 10.993 10.387 11.117 C 9.931 11.302 9.831 11.194 9.136 9.797 C 8.395 8.292 8.348 8.238 8.256 8.817 C 8.109 9.766 7.746 11.387 7.538 12.02 C 7.175 13.101 6.581 14.282 6.279 14.513 C 6.017 14.706 5.323 14.968 4.798 15.061 C 4.442 15.131 4.419 15.223 5.083 13.633 C 6.256 10.793 6.758 8.531 6.728 6.184 C 6.719 5.459 6.743 4.811 6.781 4.733 C 6.936 4.409 7.608 4.286 8.093 4.487 Z" fill="#000000" />
</svg>
