<?xml version="1.0" encoding="utf-8"?>
<svg width="570" height="570" viewBox="0 0 570 570" version="1.1" style="fill-rule:evenodd;clip-rule:evenodd;stroke-linejoin:round;stroke-miterlimit:2;" xmlns="http://www.w3.org/2000/svg" xmlns:bx="https://boxy-svg.com">
  <rect x="-0.013" y="0.004" width="570" height="570" style="fill: white;"/>
  <path d="M 507.779 314.323 C 507.699 314.435 507.612 314.543 507.514 314.645 C 506.974 315.22 506.248 315.51 505.33 315.51 L 489.85 315.51 L 489.85 363.687 C 489.85 364.512 489.559 365.21 488.977 365.788 C 488.392 366.364 487.687 366.653 486.853 366.653 L 476.618 366.653 C 475.784 366.653 475.078 366.364 474.494 365.788 C 473.91 365.21 473.622 364.512 473.622 363.687 L 473.622 315.51 L 463.51 315.51 C 462.677 315.51 461.97 315.22 461.387 314.645 C 460.802 314.068 460.512 313.326 460.512 312.423 L 460.512 305.377 C 460.512 304.555 460.802 303.855 461.387 303.28 C 461.97 302.703 462.677 302.413 463.51 302.413 L 473.622 302.413 L 473.622 297.35 C 473.622 292.407 474.537 288.312 476.369 285.058 C 478.199 281.804 480.902 279.354 484.483 277.707 C 488.061 276.063 492.598 275.237 498.09 275.237 L 506.58 275.237 C 507.493 275.237 508.222 275.524 508.767 276.103 C 509.304 276.678 509.577 277.377 509.577 278.203 L 509.577 285.243 C 509.577 286.15 509.304 286.893 508.767 287.466 C 508.222 288.044 507.493 288.33 506.58 288.33 L 498.59 288.33 C 495.261 288.33 492.972 289.155 491.723 290.803 C 490.474 292.452 489.85 294.837 489.85 297.966 L 489.85 302.413 L 505.33 302.413 C 505.618 302.413 505.888 302.444 506.137 302.502 C 506.357 302.444 506.584 302.413 506.83 302.413 L 516.941 302.413 C 517.94 302.413 518.689 302.662 519.189 303.155 C 519.688 303.65 520.061 304.185 520.312 304.764 L 536.917 345.157 L 554.021 304.764 C 554.271 304.103 554.643 303.546 555.144 303.094 C 555.641 302.643 556.391 302.413 557.391 302.413 L 567.377 302.413 C 568.043 302.413 568.649 302.662 569.188 303.155 C 569.729 303.65 570 304.226 570 304.884 C 570 305.377 569.833 306.04 569.501 306.862 L 534.17 387.776 C 533.838 388.435 533.421 388.992 532.92 389.443 C 532.421 389.896 531.672 390.125 530.673 390.125 L 520.811 390.125 C 520.144 390.125 519.562 389.876 519.063 389.383 C 518.563 388.888 518.314 388.312 518.314 387.653 C 518.314 387.323 518.337 387.015 518.378 386.725 C 518.419 386.438 518.563 386.087 518.814 385.676 L 528.552 362.823 L 507.779 314.323 Z M 374.371 390.125 C 373.538 390.125 372.831 389.835 372.248 389.258 C 371.666 388.684 371.373 387.982 371.373 387.158 L 371.373 305.377 C 371.373 304.555 371.666 303.855 372.248 303.28 C 372.831 302.703 373.538 302.413 374.371 302.413 L 384.233 302.413 C 385.149 302.413 385.879 302.703 386.419 303.28 C 386.959 303.855 387.23 304.555 387.23 305.377 L 387.23 310.322 C 389.228 307.685 391.849 305.504 395.094 303.774 C 398.341 302.044 402.377 301.18 407.203 301.18 C 411.614 301.18 415.444 301.878 418.689 303.28 C 421.934 304.678 424.64 306.676 426.803 309.27 C 428.969 311.866 430.633 314.933 431.798 318.473 C 432.963 322.015 433.63 325.927 433.797 330.208 C 433.879 331.608 433.921 333.05 433.921 334.534 C 433.921 336.015 433.879 337.497 433.797 338.983 C 433.712 343.098 433.089 346.907 431.923 350.407 C 430.759 353.906 429.072 356.955 426.869 359.548 C 424.661 362.143 421.934 364.182 418.689 365.663 C 415.444 367.146 411.614 367.886 407.203 367.886 C 402.711 367.886 398.882 367.085 395.719 365.477 C 392.557 363.873 389.978 361.752 387.98 359.116 L 387.98 387.158 C 387.98 387.982 387.71 388.684 387.164 389.258 C 386.624 389.835 385.898 390.125 384.983 390.125 L 374.371 390.125 Z M 444.282 366.653 C 443.45 366.653 442.743 366.364 442.159 365.788 C 441.579 365.21 441.287 364.512 441.287 363.687 L 441.287 305.377 C 441.287 304.555 441.579 303.855 442.159 303.28 C 442.743 302.703 443.45 302.413 444.282 302.413 L 454.643 302.413 C 455.561 302.413 456.289 302.703 456.831 303.28 C 457.371 303.855 457.642 304.555 457.642 305.377 L 457.642 363.687 C 457.642 364.512 457.371 365.21 456.831 365.788 C 456.289 366.364 455.561 366.653 454.643 366.653 L 444.282 366.653 Z M 293.349 366.653 C 292.183 366.653 291.309 366.364 290.726 365.788 C 290.143 365.21 289.644 364.468 289.228 363.565 L 271.374 306.245 C 271.292 305.832 271.25 305.463 271.25 305.133 C 271.25 304.392 271.52 303.754 272.061 303.216 C 272.604 302.683 273.204 302.413 273.872 302.413 L 283.11 302.413 C 284.111 302.413 284.9 302.683 285.481 303.216 C 286.064 303.754 286.399 304.267 286.48 304.764 L 298.716 345.653 L 311.699 305.133 C 311.864 304.555 312.241 303.958 312.822 303.343 C 313.404 302.723 314.279 302.413 315.444 302.413 L 321.688 302.413 C 322.853 302.413 323.728 302.723 324.309 303.343 C 324.891 303.958 325.264 304.555 325.432 305.133 L 338.416 345.653 L 350.651 304.764 C 350.733 304.267 351.044 303.754 351.588 303.216 C 352.126 302.683 352.899 302.413 353.894 302.413 L 363.133 302.413 C 363.883 302.413 364.53 302.683 365.07 303.216 C 365.611 303.754 365.881 304.392 365.881 305.133 C 365.881 305.463 365.798 305.832 365.63 306.245 L 347.779 363.565 C 347.53 364.468 347.093 365.21 346.469 365.788 C 345.844 366.364 344.95 366.653 343.782 366.653 L 335.669 366.653 C 334.589 366.653 333.692 366.364 332.988 365.788 C 332.276 365.21 331.799 364.468 331.55 363.565 L 318.568 324.526 L 305.581 363.565 C 305.251 364.468 304.77 365.21 304.146 365.788 C 303.522 366.364 302.588 366.653 301.338 366.653 L 293.349 366.653 Z M 402.587 354.668 C 406.163 354.668 408.951 353.906 410.95 352.385 C 412.948 350.86 414.403 348.863 415.319 346.392 C 416.234 343.923 416.774 341.205 416.941 338.24 C 417.024 335.768 417.024 333.296 416.941 330.826 C 416.774 327.862 416.234 325.145 415.319 322.675 C 414.403 320.204 412.948 318.206 410.95 316.683 C 408.951 315.158 406.163 314.397 402.587 314.397 C 399.173 314.397 396.407 315.18 394.282 316.744 C 392.16 318.31 390.62 320.304 389.663 322.735 C 388.707 325.163 388.144 327.656 387.98 330.208 C 387.894 331.693 387.854 333.257 387.854 334.904 C 387.854 336.552 387.894 338.156 387.98 339.722 C 388.061 342.192 388.643 344.558 389.728 346.825 C 390.809 349.092 392.389 350.963 394.471 352.444 C 396.551 353.928 399.257 354.668 402.587 354.668 Z M 449.214 275.125 C 455.179 275.125 460.021 279.915 460.021 285.815 C 460.021 291.715 455.179 296.505 449.214 296.505 C 443.251 296.505 438.412 291.715 438.412 285.815 C 438.412 279.915 443.251 275.125 449.214 275.125 Z" style="fill: url(#_Linear1); fill-rule: nonzero;" bx:origin="-1.146444 -3.01087"/>
  <path d="M 148.612 383.986 C 149.116 385.05 149.032 386.295 148.386 387.285 C 147.743 388.275 146.626 388.875 145.429 388.875 C 133.89 388.875 107.564 388.875 99.694 388.875 C 98.314 388.875 97.06 388.09 96.48 386.863 C 87.289 367.455 14.404 213.553 0.332 183.834 C -0.181 182.754 -0.094 181.491 0.559 180.488 C 1.212 179.485 2.343 178.875 3.559 178.875 C 15.133 178.875 41.347 178.875 49.209 178.875 C 50.593 178.875 51.85 179.664 52.434 180.893 C 61.643 200.343 134.619 354.44 148.612 383.986 Z M 175.009 388.875 C 173.628 388.875 172.376 388.092 171.794 386.865 C 162.612 367.475 89.794 213.712 75.667 183.878 C 75.15 182.787 75.237 181.515 75.897 180.504 C 76.557 179.49 77.697 178.875 78.924 178.875 C 90.522 178.875 116.664 178.875 124.519 178.875 C 125.906 178.875 127.166 179.665 127.75 180.897 C 136.624 199.636 204.314 342.574 209.63 353.798 C 209.848 354.258 209.961 354.76 209.961 355.268 C 209.961 359.256 209.961 377.683 209.961 385.427 C 209.961 386.343 209.592 387.218 208.932 387.864 C 208.274 388.512 207.379 388.875 206.446 388.875 C 198.89 388.875 181.272 388.875 175.009 388.875 Z M 153.672 178.875 C 152.447 178.875 151.303 179.49 150.646 180.501 C 149.987 181.515 149.9 182.786 150.416 183.877 C 159.116 202.248 189.518 266.444 203.199 295.334 C 203.898 296.814 205.554 297.616 207.18 297.265 C 208.803 296.913 209.961 295.502 209.961 293.87 C 209.961 292.688 209.913 233.162 209.888 200.265 C 209.879 188.485 200.139 178.937 188.121 178.927 C 174.969 178.905 159.654 178.875 153.672 178.875 Z M 187.779 190.023 C 193.894 190.023 198.86 194.892 198.86 200.887 C 198.86 206.884 193.894 211.753 187.779 211.753 C 181.661 211.753 176.694 206.884 176.694 200.887 C 176.694 194.892 181.661 190.023 187.779 190.023 Z" style="fill: url(#_Linear2);" bx:origin="-0.339351 -1.190476"/>
  <circle cx="318.126" cy="230.752" r="51.878" style="fill: white;"/>
  <path d="M 311.428 179.005 C 299.63 180.79 290.391 185.044 282.241 192.383 C 270.653 202.794 264.649 216.853 265.016 232.62 C 265.093 235.86 265.258 239.025 265.42 239.714 C 266.276 243.76 266.559 244.9 267.489 247.82 C 269.961 255.557 274.099 262.24 280.379 268.484 C 288.362 276.427 296.384 280.764 307.573 283.153 C 312.156 284.127 322.934 284.127 327.633 283.11 C 341.826 280.07 353.612 272.168 361.358 260.504 C 365.083 254.864 368.363 246.926 369.221 241.335 C 369.341 240.443 369.624 238.898 369.788 237.885 C 370.15 235.943 370.029 225.568 369.624 223.5 C 369.462 222.813 369.179 221.353 368.974 220.26 C 367.802 214.506 364.763 207.414 361.072 201.78 C 358.601 198.053 351.064 190.472 347.291 187.963 C 341.332 183.987 334.401 181.116 327.434 179.7 C 324.431 179.088 313.936 178.643 311.428 179.005 Z M 307.49 202.432 C 308.26 202.753 309.4 203.603 310.009 204.333 C 311.06 205.552 313.738 210.695 315.639 215.194 C 318.152 220.992 320.342 225.853 320.541 226.056 C 320.866 226.42 328.81 217.993 332.863 212.964 C 333.231 212.518 334.202 211.263 335.052 210.206 C 335.902 209.157 336.796 208.307 337.079 208.307 C 337.972 208.307 341.218 212.197 341.903 214.145 C 342.508 215.798 342.592 217.137 342.388 223.62 C 342.309 227.795 342.103 231.933 342.024 232.824 C 341.941 233.713 341.779 237.162 341.614 240.523 C 341.296 248.344 341.133 249.845 340.402 251.263 C 339.714 252.555 337.972 253.326 336.674 252.838 C 334.081 251.908 333.346 247.897 333.43 235.496 C 333.472 228.608 333.346 225.932 333.026 225.932 C 332.742 225.932 331.121 227.312 329.382 228.975 C 324.552 233.675 321.029 236.588 319.533 237.238 C 317.14 238.212 316.613 237.644 312.964 230.31 C 309.074 222.408 308.829 222.124 308.344 225.165 C 307.573 230.147 305.668 238.657 304.576 241.982 C 302.67 247.656 299.55 253.856 297.966 255.07 C 296.59 256.083 292.948 257.457 290.191 257.946 C 288.321 258.314 288.2 258.797 291.686 250.448 C 297.844 235.538 300.48 223.663 300.322 211.34 C 300.276 207.535 300.401 204.133 300.601 203.723 C 301.414 202.023 304.943 201.376 307.49 202.432 Z" style="fill: rgb(97, 194, 34); fill-rule: nonzero;" bx:origin="-3.202295 -2.380864"/>
  <defs>
    <linearGradient id="_Linear1" x1="0" y1="0" x2="1" y2="0" gradientUnits="userSpaceOnUse" gradientTransform="matrix(0, 166.621322, -166.205707, 0, 477.429543, 247.87448)">
      <stop offset="0" style="stop-color:rgb(130,135,140);stop-opacity:1"/>
      <stop offset="1" style="stop-color:rgb(25,30,35);stop-opacity:1"/>
    </linearGradient>
    <linearGradient id="_Linear2" x1="0" y1="0" x2="1" y2="0" gradientUnits="userSpaceOnUse" gradientTransform="matrix(0, -209.998128, 210.449822, 0, 193.14493, 388.875565)">
      <stop offset="0" style="stop-color:rgb(0,115,170);stop-opacity:1"/>
      <stop offset="1" style="stop-color:rgb(0,160,210);stop-opacity:1"/>
    </linearGradient>
  </defs>
</svg>